<svg width="18" height="18" viewBox="0 0 18 18" fill="none" xmlns="http://www.w3.org/2000/svg">
<path opacity="0.7" d="M8.95264 17.4736C13.5845 17.4736 17.4194 13.6304 17.4194 9.00684C17.4194 4.375 13.5762 0.540039 8.94434 0.540039C4.3208 0.540039 0.48584 4.375 0.48584 9.00684C0.48584 13.6304 4.3291 17.4736 8.95264 17.4736ZM8.95264 16.0625C5.03467 16.0625 1.90527 12.9248 1.90527 9.00684C1.90527 5.08887 5.02637 1.95117 8.94434 1.95117C12.8623 1.95117 16 5.08887 16.0083 9.00684C16.0166 12.9248 12.8706 16.0625 8.95264 16.0625ZM8.95264 4.78174C8.5957 4.78174 8.33008 5.03906 8.33008 5.4043V9.55469L8.39648 11.3062L7.56641 10.3101L6.57861 9.31396C6.4624 9.19775 6.31299 9.13135 6.13867 9.13135C5.79834 9.13135 5.54102 9.38867 5.54102 9.729C5.54102 9.90332 5.59082 10.0527 5.69873 10.1606L8.47119 12.9165C8.63721 13.0825 8.77832 13.1572 8.95264 13.1572C9.13525 13.1572 9.28467 13.0742 9.44238 12.9165L12.2065 10.1606C12.3145 10.0527 12.3809 9.90332 12.3809 9.729C12.3809 9.38867 12.1152 9.13135 11.7749 9.13135C11.5923 9.13135 11.4429 9.18945 11.335 9.31396L10.3555 10.3101L9.50879 11.3145L9.5752 9.55469V5.4043C9.5752 5.03906 9.31787 4.78174 8.95264 4.78174Z" fill="rgba(241,241,241,0.788)"/>
</svg>
