<svg width="10" height="13" viewBox="0 0 10 13" fill="none" xmlns="http://www.w3.org/2000/svg">
<path d="M2.09277 12.479H7.90088C8.83398 12.479 9.3291 11.9712 9.3291 10.9683V6.59473C9.3291 5.7124 8.94824 5.21729 8.21826 5.10938V3.57324C8.21826 1.18652 6.65674 0.0249023 4.99365 0.0249023C3.33691 0.0249023 1.77539 1.18652 1.77539 3.57324V5.10938C1.05176 5.21729 0.664551 5.7124 0.664551 6.59473V10.9683C0.664551 11.9712 1.15967 12.479 2.09277 12.479ZM2.78467 3.43359C2.78467 1.83398 3.80664 0.983398 4.99365 0.983398C6.18066 0.983398 7.21533 1.83398 7.21533 3.43359V5.09033H2.78467V3.43359Z" fill="#ABABB0"/>
</svg>
