<svg width="38" height="24" viewBox="0 0 38 24" fill="none" xmlns="http://www.w3.org/2000/svg">
<path d="M19 19.0376C18.0944 19.0376 17.2417 18.8641 16.4419 18.5171C15.6421 18.1743 14.9375 17.6982 14.3281 17.0889C13.7188 16.4795 13.2406 15.777 12.8936 14.9814C12.5508 14.1816 12.3794 13.3268 12.3794 12.417C12.3794 11.5114 12.5508 10.6608 12.8936 9.86523C13.2406 9.06543 13.7166 8.36084 14.3218 7.75146C14.9312 7.14209 15.6357 6.66602 16.4355 6.32324C17.2354 5.97624 18.0881 5.80273 18.9937 5.80273C19.8993 5.80273 20.752 5.97624 21.5518 6.32324C22.3558 6.66602 23.0604 7.14209 23.6655 7.75146C24.2749 8.36084 24.7531 9.06543 25.1001 9.86523C25.4471 10.6608 25.6206 11.5114 25.6206 12.417C25.6206 13.3268 25.4471 14.1816 25.1001 14.9814C24.7531 15.777 24.2749 16.4795 23.6655 17.0889C23.0604 17.6982 22.3579 18.1743 21.5581 18.5171C20.7583 18.8641 19.9056 19.0376 19 19.0376ZM19 17.584C19.7152 17.584 20.3838 17.4507 21.0059 17.1841C21.6322 16.9175 22.1823 16.5493 22.6562 16.0796C23.1302 15.6056 23.5005 15.0576 23.7671 14.4355C24.0337 13.8092 24.167 13.1364 24.167 12.417C24.167 11.7018 24.0316 11.0332 23.7607 10.4111C23.4941 9.78483 23.1239 9.2347 22.6499 8.76074C22.1802 8.28678 21.6322 7.9165 21.0059 7.6499C20.3838 7.3833 19.7131 7.25 18.9937 7.25C18.2785 7.25 17.6077 7.3833 16.9814 7.6499C16.3594 7.9165 15.8114 8.28678 15.3374 8.76074C14.8677 9.2347 14.4995 9.78483 14.2329 10.4111C13.9705 11.0332 13.8394 11.7018 13.8394 12.417C13.8394 13.1364 13.9705 13.8092 14.2329 14.4355C14.4995 15.0576 14.8698 15.6056 15.3438 16.0796C15.8177 16.5493 16.3657 16.9175 16.9878 17.1841C17.6141 17.4507 18.2848 17.584 19 17.584ZM23.1514 16.6128C22.7367 16.9683 22.2839 17.2666 21.793 17.5078C21.3063 17.7533 20.8197 17.9373 20.333 18.0601C19.8464 18.187 19.402 18.2505 19 18.2505C18.6064 18.2505 18.1642 18.187 17.6733 18.0601C17.1867 17.9373 16.6979 17.7533 16.207 17.5078C15.7161 17.2666 15.2655 16.9683 14.855 16.6128L14.8804 16.4731C15.0369 16.1642 15.3057 15.8701 15.6865 15.5908C16.0674 15.3073 16.5392 15.0767 17.1021 14.8989C17.6649 14.7212 18.2975 14.6323 19 14.6323C19.7109 14.6323 20.3478 14.7212 20.9106 14.8989C21.4735 15.0767 21.9432 15.3073 22.3198 15.5908C22.7007 15.8701 22.9694 16.1663 23.126 16.4795L23.1514 16.6128ZM19 13.6104C18.5895 13.6061 18.2192 13.4982 17.8892 13.2866C17.5591 13.075 17.2967 12.7894 17.1021 12.4297C16.9116 12.0658 16.8143 11.6574 16.8101 11.2046C16.8058 10.7772 16.901 10.3857 17.0957 10.0303C17.2946 9.6748 17.5591 9.38916 17.8892 9.17334C18.2235 8.95752 18.5938 8.84961 19 8.84961C19.4105 8.84961 19.7808 8.95752 20.1108 9.17334C20.4409 9.38916 20.7033 9.6748 20.8979 10.0303C21.0968 10.3857 21.1963 10.7772 21.1963 11.2046C21.1963 11.6574 21.099 12.0658 20.9043 12.4297C20.7096 12.7936 20.4473 13.0835 20.1172 13.2993C19.7871 13.5109 19.4147 13.6146 19 13.6104Z" fill="white" fill-opacity="0.85"/>
</svg>
