<svg width="14" height="14" viewBox="0 0 14 14" fill="none" xmlns="http://www.w3.org/2000/svg">
<path opacity="0.7" d="M0.116699 7.00684C0.116699 7.41357 0.457031 7.74561 0.855469 7.74561H6.22607V13.1162C6.22607 13.5146 6.55811 13.855 6.96484 13.855C7.37158 13.855 7.71191 13.5146 7.71191 13.1162V7.74561H13.0742C13.4727 7.74561 13.813 7.41357 13.813 7.00684C13.813 6.6001 13.4727 6.25977 13.0742 6.25977H7.71191V0.897461C7.71191 0.499023 7.37158 0.158691 6.96484 0.158691C6.55811 0.158691 6.22607 0.499023 6.22607 0.897461V6.25977H0.855469C0.457031 6.25977 0.116699 6.6001 0.116699 7.00684Z" fill="rgba(241,241,241,0.717)"/>
</svg>
