<svg width="16" height="18" viewBox="0 0 16 18" fill="none" xmlns="http://www.w3.org/2000/svg">
<path d="M0.662109 10.6045C0.662109 14.6802 3.93262 17.9507 8 17.9507C12.0674 17.9507 15.3296 14.6802 15.3296 10.6045C15.3296 10.2061 15.0474 9.91553 14.6406 9.91553C14.2505 9.91553 13.9932 10.2061 13.9932 10.6045C13.9932 13.9414 11.3286 16.6143 8 16.6143C4.67139 16.6143 1.99854 13.9414 1.99854 10.6045C1.99854 7.27588 4.67139 4.61133 8 4.61133C8.63086 4.61133 9.22021 4.66113 9.70996 4.77734L7.22803 7.23438C7.10352 7.36719 7.03711 7.5332 7.03711 7.70752C7.03711 8.08936 7.31934 8.37158 7.69287 8.37158C7.90039 8.37158 8.05811 8.30518 8.17432 8.18066L11.5942 4.74414C11.7437 4.60303 11.8018 4.43701 11.8018 4.24609C11.8018 4.06348 11.7271 3.88086 11.5942 3.74805L8.17432 0.27832C8.05811 0.145508 7.89209 0.0791016 7.69287 0.0791016C7.31934 0.0791016 7.03711 0.37793 7.03711 0.759766C7.03711 0.934082 7.10352 1.1001 7.21973 1.23291L9.42773 3.41602C8.99609 3.33301 8.50635 3.2749 8 3.2749C3.93262 3.2749 0.662109 6.53711 0.662109 10.6045Z" fill="#f1f1f1"/>
</svg>
