<svg width="38" height="24" viewBox="0 0 38 24" fill="none" xmlns="http://www.w3.org/2000/svg">
<path d="M12.6841 11.2871C12.6841 10.5677 12.8195 9.89062 13.0903 9.25586C13.3612 8.62109 13.7378 8.06462 14.2202 7.58643C14.7026 7.104 15.2591 6.72738 15.8896 6.45654C16.5244 6.18571 17.2036 6.05029 17.9272 6.05029C18.6509 6.05029 19.328 6.18571 19.9585 6.45654C20.5933 6.72738 21.1519 7.104 21.6343 7.58643C22.1167 8.06462 22.4933 8.62109 22.7642 9.25586C23.035 9.89062 23.1704 10.5677 23.1704 11.2871C23.1704 11.8288 23.09 12.3451 22.9292 12.8359C22.7726 13.3268 22.5526 13.7775 22.269 14.188L25.0049 16.9365C25.1064 17.0423 25.1826 17.1587 25.2334 17.2856C25.2884 17.4168 25.3159 17.5565 25.3159 17.7046C25.3159 17.9077 25.2694 18.0918 25.1763 18.2568C25.0832 18.4219 24.9562 18.5509 24.7954 18.644C24.6346 18.7414 24.4484 18.79 24.2368 18.79C24.0929 18.79 23.9533 18.7646 23.8179 18.7139C23.6825 18.6631 23.5618 18.5848 23.4561 18.479L20.6948 15.7178C20.297 15.9717 19.8633 16.1727 19.3936 16.3208C18.9281 16.4647 18.4393 16.5366 17.9272 16.5366C17.2036 16.5366 16.5244 16.4012 15.8896 16.1304C15.2591 15.8595 14.7026 15.4829 14.2202 15.0005C13.7378 14.5181 13.3612 13.9595 13.0903 13.3247C12.8195 12.6899 12.6841 12.0107 12.6841 11.2871ZM14.2266 11.2871C14.2266 11.7992 14.3218 12.2795 14.5122 12.728C14.7069 13.1724 14.9735 13.5638 15.312 13.9023C15.6506 14.2409 16.042 14.5075 16.4863 14.7021C16.9349 14.8926 17.4152 14.9878 17.9272 14.9878C18.4393 14.9878 18.9175 14.8926 19.3618 14.7021C19.8104 14.5075 20.2039 14.2409 20.5425 13.9023C20.881 13.5638 21.1455 13.1724 21.3359 12.728C21.5306 12.2795 21.6279 11.7992 21.6279 11.2871C21.6279 10.7793 21.5306 10.3032 21.3359 9.85889C21.1455 9.41032 20.881 9.01676 20.5425 8.67822C20.2039 8.33545 19.8104 8.06885 19.3618 7.87842C18.9175 7.68799 18.4393 7.59277 17.9272 7.59277C17.4152 7.59277 16.9349 7.68799 16.4863 7.87842C16.042 8.06885 15.6506 8.33545 15.312 8.67822C14.9735 9.01676 14.7069 9.41032 14.5122 9.85889C14.3218 10.3032 14.2266 10.7793 14.2266 11.2871Z" fill="white" fill-opacity="0.85"/>
</svg>
