<svg width="32" height="38" viewBox="0 0 32 38" fill="none" xmlns="http://www.w3.org/2000/svg">
<g style="mix-blend-mode:plus-darker">
<path d="M12.3438 26.1519C11.6582 26.1519 11.1398 25.9784 10.7886 25.6313C10.4373 25.2843 10.2617 24.7702 10.2617 24.0889V17.8428C10.2617 17.1657 10.4373 16.6536 10.7886 16.3066C11.1398 15.9554 11.6582 15.7798 12.3438 15.7798H14.1846V17.0303H12.4199C12.1237 17.0303 11.8973 17.1086 11.7407 17.2651C11.5884 17.4175 11.5122 17.6481 11.5122 17.957V23.981C11.5122 24.2899 11.5884 24.5205 11.7407 24.6729C11.8973 24.8294 12.1237 24.9077 12.4199 24.9077H19.5737C19.8657 24.9077 20.09 24.8294 20.2466 24.6729C20.4074 24.5205 20.4878 24.2899 20.4878 23.981V17.957C20.4878 17.6481 20.4074 17.4175 20.2466 17.2651C20.09 17.1086 19.8657 17.0303 19.5737 17.0303H17.8154V15.7798H19.6562C20.3418 15.7798 20.8602 15.9554 21.2114 16.3066C21.5627 16.6536 21.7383 17.1657 21.7383 17.8428V24.0889C21.7383 24.766 21.5627 25.278 21.2114 25.625C20.8602 25.9762 20.3418 26.1519 19.6562 26.1519H12.3438ZM16 21.0928C15.8392 21.0928 15.6995 21.0356 15.5811 20.9214C15.4668 20.8071 15.4097 20.6717 15.4097 20.5151V14.123L15.4604 13.1772L15.0605 13.6406L14.1719 14.5928C14.0703 14.707 13.9391 14.7642 13.7783 14.7642C13.6302 14.7642 13.5054 14.7176 13.4038 14.6245C13.3065 14.5272 13.2578 14.4045 13.2578 14.2563C13.2578 14.1209 13.3107 13.9961 13.4165 13.8818L15.5493 11.8315C15.6297 11.7554 15.7059 11.7025 15.7778 11.6729C15.8498 11.6432 15.9238 11.6284 16 11.6284C16.0762 11.6284 16.1502 11.6432 16.2222 11.6729C16.2941 11.7025 16.3682 11.7554 16.4443 11.8315L18.5771 13.8818C18.6872 13.9961 18.7422 14.1209 18.7422 14.2563C18.7422 14.4045 18.6893 14.5272 18.5835 14.6245C18.4819 14.7176 18.3592 14.7642 18.2153 14.7642C18.0588 14.7642 17.9276 14.707 17.8218 14.5928L16.9331 13.6406L16.5396 13.1772L16.5903 14.123V20.5151C16.5903 20.6717 16.5311 20.8071 16.4126 20.9214C16.2983 21.0356 16.1608 21.0928 16 21.0928Z" fill="#f1f1f1" fill-opacity="0.5"/>
</g>
</svg>
