<svg xmlns="http://www.w3.org/2000/svg" viewBox="0 0 128 128"><path fill="#1572B6" d="M12.242 10.446l10.51 106.942L64 128l41.225-10.612 10.533-106.942H12.242z"/><path fill="#33A9DC" d="M64 19.458v89.262l31.573-8.125 8.715-81.137H64z"/><path fill="#EBEBEB" d="M64 49.336H30.932l.664 6.727 1.343 13.63H64v-6.727V49.336zM64 88.082l-.123.033-17.653-4.766-1.127-11.436H31.42l2.253 22.866L64 105.15v-17.068z"/><path fill="#FFF" d="M64 49.336V62.96h31.23l-.666 6.727-1.343 13.63L64 85.021V102.1l20.315-5.503 2.721-27.65.666-6.727.666-6.728H64v-6.157zm0-27.086v13.456h34.371l.666-6.728.666-6.728H64z"/></svg>
